<svg width="26" height="26" viewBox="0 0 26 26" fill="none" xmlns="http://www.w3.org/2000/svg">
<path d="M14.25 0.5C10.7983 0.5 8 3.29822 8 6.75C8 7.44035 8.55965 8 9.25 8C9.94035 8 10.5 7.44035 10.5 6.75C10.5 4.67894 12.1789 3 14.25 3H19.25C21.3211 3 23 4.67894 23 6.75V19.25C23 21.3211 21.3211 23 19.25 23H14.25C12.1789 23 10.5 21.3211 10.5 19.25C10.5 18.5596 9.94035 18 9.25 18C8.55965 18 8 18.5596 8 19.25C8 22.7017 10.7983 25.5 14.25 25.5H19.25C22.7017 25.5 25.5 22.7017 25.5 19.25V6.75C25.5 3.29822 22.7017 0.5 19.25 0.5H14.25Z" fill="white"/>
<path d="M1.75 11.75C1.05965 11.75 0.5 12.3096 0.5 13C0.5 13.6904 1.05965 14.25 1.75 14.25H12.1026C11.9914 14.3873 11.8847 14.5204 11.7839 14.6475C11.477 15.0346 11.2172 15.3745 11.0337 15.6181C10.942 15.7401 10.869 15.8381 10.8187 15.9064L10.7605 15.9855L10.7449 16.0069L10.7394 16.0144C10.7392 16.0145 10.7387 16.0153 11.75 16.75L10.7394 16.0144C10.3336 16.5729 10.4568 17.3555 11.0152 17.7613C11.5737 18.167 12.3554 18.0433 12.7612 17.4849L12.7647 17.48L12.7775 17.4625L12.8297 17.3915C12.8759 17.329 12.9441 17.2371 13.0309 17.1219C13.2046 16.8913 13.4515 16.5683 13.7427 16.2008C14.3319 15.4579 15.0779 14.5649 15.7589 13.8839L16.6427 13L15.7589 12.1161C15.0779 11.4351 14.3319 10.5421 13.7427 9.79921C13.4515 9.43178 13.2046 9.10878 13.0309 8.87813C12.9441 8.76291 12.8759 8.67103 12.8297 8.60849L12.7775 8.53753L12.7647 8.52003L12.7619 8.51601C12.356 7.95758 11.5737 7.83296 11.0152 8.23873C10.4568 8.64451 10.3329 9.42623 10.7387 9.98473L11.75 9.25C10.7387 9.98473 10.7386 9.98466 10.7387 9.98473L10.7406 9.98731L10.7449 9.99318L10.7605 10.0145L10.8187 10.0937C10.869 10.1618 10.942 10.2599 11.0337 10.3819C11.2172 10.6255 11.477 10.9654 11.7839 11.3525C11.8847 11.4796 11.9914 11.6128 12.1026 11.75H1.75Z" fill="white"/>
</svg>
